<?xml version="1.0" encoding="UTF-8"?>
<svg width="1070px" height="564px" viewBox="0 0 1070 564" version="1.1" xmlns="http://www.w3.org/2000/svg" xmlns:xlink="http://www.w3.org/1999/xlink">
    <!-- Generator: Sketch 58 (84663) - https://sketch.com -->
    <title>zen-filelink</title>
    <desc>Created with Sketch.</desc>
    <defs>
        <rect id="path-1" x="0" y="0" width="400" height="320" rx="16"></rect>
        <filter x="-19.0%" y="-18.8%" width="138.0%" height="147.5%" filterUnits="objectBoundingBox" id="filter-2">
            <feMorphology radius="4" operator="erode" in="SourceAlpha" result="shadowSpreadOuter1"></feMorphology>
            <feOffset dx="0" dy="16" in="shadowSpreadOuter1" result="shadowOffsetOuter1"></feOffset>
            <feGaussianBlur stdDeviation="24" in="shadowOffsetOuter1" result="shadowBlurOuter1"></feGaussianBlur>
            <feColorMatrix values="0 0 0 0 0   0 0 0 0 0   0 0 0 0 0  0 0 0 0.0970006556 0" type="matrix" in="shadowBlurOuter1" result="shadowMatrixOuter1"></feColorMatrix>
            <feOffset dx="0" dy="1" in="SourceAlpha" result="shadowOffsetOuter2"></feOffset>
            <feGaussianBlur stdDeviation="2" in="shadowOffsetOuter2" result="shadowBlurOuter2"></feGaussianBlur>
            <feColorMatrix values="0 0 0 0 0   0 0 0 0 0   0 0 0 0 0  0 0 0 0.07 0" type="matrix" in="shadowBlurOuter2" result="shadowMatrixOuter2"></feColorMatrix>
            <feMerge>
                <feMergeNode in="shadowMatrixOuter1"></feMergeNode>
                <feMergeNode in="shadowMatrixOuter2"></feMergeNode>
            </feMerge>
        </filter>
    </defs>
    <g id="Page-2" stroke="none" stroke-width="1" fill="none" fill-rule="evenodd">
        <g id="ZEN@1440px" transform="translate(-245.000000, -5727.000000)">
            <g id="6" transform="translate(0.000000, 5437.000000)">
                <g id="zen-filelink" transform="translate(165.000000, 266.000000)">
                    <rect id="Rectangle" x="0" y="0" width="1110" height="588"></rect>
                    <g id="window" transform="translate(710.000000, 48.000000)">
                        <g id="shadow">
                            <use fill="black" fill-opacity="1" filter="url(#filter-2)" xlink:href="#path-1"></use>
                            <use fill="#FFFFFF" fill-rule="evenodd" xlink:href="#path-1"></use>
                        </g>
                        <path d="M0,32 L400,32 L400,312 C400,316.418278 396.418278,320 392,320 L8,320 C3.581722,320 5.41083001e-16,316.418278 0,312 L0,32 L0,32 Z" id="Rectangle" stroke="#D6D6D6" fill="#FFFFFF"></path>
                        <g id="chart" transform="translate(50.000000, 122.000000)">
                            <path d="M0,108.5 L300,108.5" id="Path-62" stroke="#000000" opacity="0.100000001"></path>
                            <path d="M0,72.5 L300,72.5" id="Path-62" stroke="#000000" opacity="0.100000001"></path>
                            <path d="M0,36.5 L300,36.5" id="Path-62" stroke="#000000" opacity="0.100000001"></path>
                            <path d="M0,0.5 L300,0.5" id="Path-62" stroke="#000000" opacity="0.100000001"></path>
                            <g id="red" transform="translate(15.000000, 16.000000)" stroke="#EF3420">
                                <polyline id="Path-61" points="2 58 42 25 82 48 122 18 162 71 202 42 242 2"></polyline>
                                <circle id="Oval" fill="#FFFFFF" cx="2" cy="58" r="2"></circle>
                                <circle id="Oval" fill="#FFFFFF" cx="42" cy="25" r="2"></circle>
                                <circle id="Oval" fill="#FFFFFF" cx="82" cy="48" r="2"></circle>
                                <circle id="Oval" fill="#FFFFFF" cx="122" cy="18" r="2"></circle>
                                <circle id="Oval" fill="#FFFFFF" cx="162" cy="71" r="2"></circle>
                                <circle id="Oval" fill="#FFFFFF" cx="202" cy="42" r="2"></circle>
                                <circle id="Oval" fill="#FFFFFF" cx="242" cy="2" r="2"></circle>
                            </g>
                            <g id="blue" transform="translate(15.000000, 36.000000)" stroke="#2B98FF">
                                <polyline id="Path-61" points="2 58 42 35 82 38 122 57 162 21 202 2 242 22"></polyline>
                                <circle id="Oval" fill="#FFFFFF" cx="2" cy="58" r="2"></circle>
                                <circle id="Oval" fill="#FFFFFF" cx="42" cy="35" r="2"></circle>
                                <circle id="Oval" fill="#FFFFFF" cx="82" cy="38" r="2"></circle>
                                <circle id="Oval" fill="#FFFFFF" cx="122" cy="57" r="2"></circle>
                                <circle id="Oval" fill="#FFFFFF" cx="162" cy="21" r="2"></circle>
                                <circle id="Oval" fill="#FFFFFF" cx="202" cy="2" r="2"></circle>
                                <circle id="Oval" fill="#FFFFFF" cx="242" cy="22" r="2"></circle>
                            </g>
                        </g>
                        <path d="M8,0 L392,0 C396.418278,-8.11624501e-16 400,3.581722 400,8 L400,32 L400,32 L0,32 L0,8 C-5.41083001e-16,3.581722 3.581722,8.11624501e-16 8,0 Z" id="Rectangle" stroke="#D6D6D6" fill="#F9F9F9"></path>
                        <path d="M177.550781,10.4140625 L177.550781,22 L176.191406,22 L176.191406,20.6875 L176.113281,20.6875 C175.837238,21.1250022 175.472659,21.4765612 175.019531,21.7421875 C174.566404,22.0078138 174.061201,22.140625 173.503906,22.140625 C172.795569,22.140625 172.165367,21.9726579 171.613281,21.6367188 C171.061195,21.3007796 170.63021,20.828128 170.320312,20.21875 C170.010415,19.609372 169.855469,18.906254 169.855469,18.109375 C169.855469,17.2499957 170.014321,16.4895866 170.332031,15.828125 C170.649741,15.1666634 171.088539,14.6536477 171.648438,14.2890625 C172.208336,13.9244773 172.83984,13.7421875 173.542969,13.7421875 C174.016929,13.7421875 174.489581,13.8776028 174.960938,14.1484375 C175.432294,14.4192722 175.813801,14.7786436 176.105469,15.2265625 L176.191406,15.2265625 L176.191406,10.4140625 L177.550781,10.4140625 Z M173.699219,21.0625 C174.095054,21.0625 174.477863,20.9583344 174.847656,20.75 C175.21745,20.5416656 175.524738,20.2617205 175.769531,19.9101562 C176.014324,19.558592 176.154948,19.1796895 176.191406,18.7734375 L176.191406,17.28125 C176.154948,16.8020809 176.019532,16.3802102 175.785156,16.015625 C175.55078,15.6510398 175.250002,15.3684906 174.882812,15.1679688 C174.515623,14.9674469 174.121096,14.8671875 173.699219,14.8671875 C173.22005,14.8671875 172.791669,15.0026028 172.414062,15.2734375 C172.036456,15.5442722 171.742189,15.9244767 171.53125,16.4140625 C171.320311,16.9036483 171.214844,17.4687468 171.214844,18.109375 C171.214844,18.6927113 171.320311,19.207029 171.53125,19.6523438 C171.742189,20.0976585 172.036456,20.4440092 172.414062,20.6914062 C172.791669,20.9388033 173.22005,21.0625 173.699219,21.0625 Z M182.558594,13.7421875 C183.475265,13.7421875 184.200518,13.8684883 184.734375,14.1210938 C185.268232,14.3736992 185.651041,14.7617161 185.882812,15.2851562 C186.114584,15.8085964 186.230469,16.4973916 186.230469,17.3515625 L186.230469,22 L184.941406,22 L184.941406,20.7421875 L184.847656,20.7421875 C184.717447,21.0078138 184.506512,21.2499989 184.214844,21.46875 C183.923176,21.6875011 183.583335,21.8593744 183.195312,21.984375 C182.80729,22.1093756 182.412762,22.171875 182.011719,22.171875 C181.152339,22.1666666 180.479169,21.9388043 179.992188,21.4882812 C179.505206,21.0377582 179.264323,20.4062541 179.269531,19.59375 C179.269531,18.8906215 179.540362,18.307294 180.082031,17.84375 C180.623701,17.380206 181.373693,17.0807298 182.332031,16.9453125 C182.639324,16.8984373 182.942707,16.8671876 183.242188,16.8515625 L183.876753,16.8247768 L183.876753,16.8247768 L184.917969,16.7890625 C184.876302,16.3359352 184.769532,15.9687514 184.597656,15.6875 C184.42578,15.4062486 184.166668,15.1979173 183.820312,15.0625 C183.473957,14.9270827 183.019534,14.859375 182.457031,14.859375 C182.196613,14.859375 181.859377,14.9127599 181.445312,15.0195312 C181.031248,15.1263026 180.615887,15.2864573 180.199219,15.5 L179.972656,14.453125 C180.305991,14.249999 180.729164,14.0807298 181.242188,13.9453125 C181.755211,13.8098952 182.194009,13.7421875 182.558594,13.7421875 Z M182.371094,21.0390625 C182.761721,21.0390625 183.134113,20.9479176 183.488281,20.765625 C183.84245,20.5833324 184.147134,20.3294287 184.402344,20.0039062 C184.657553,19.6783838 184.837239,19.3098979 184.941406,18.8984375 L184.941406,17.8671875 C183.915359,17.8932293 183.074222,17.9583328 182.417969,18.0625 C181.829424,18.1562505 181.371095,18.333332 181.042969,18.59375 C180.714842,18.854168 180.550781,19.1796855 180.550781,19.5703125 C180.550781,20.0442732 180.709634,20.4075508 181.027344,20.6601562 C181.345054,20.9127617 181.792966,21.0390625 182.371094,21.0390625 Z M190.035156,15.078125 L190.035156,19.2578125 C190.035156,19.6901063 190.066406,20.0091136 190.128906,20.2148438 C190.191407,20.4205739 190.295572,20.5572913 190.441406,20.625 C190.58724,20.6927087 190.808592,20.7265625 191.105469,20.7265625 L191.371094,20.7265625 L191.371094,22 L190.746094,22 C190.204424,22 189.78646,21.9244799 189.492188,21.7734375 C189.197915,21.6223951 188.988282,21.3645852 188.863281,21 C188.738281,20.6354148 188.675781,20.1093784 188.675781,19.421875 L188.675781,15.078125 L187.675781,15.078125 L187.675781,13.8828125 L188.675781,13.8828125 L188.675781,11.640625 L190.035156,11.15625 L190.035156,13.8828125 L191.503906,13.8828125 L191.503906,15.078125 L190.035156,15.078125 Z M196.042969,13.7421875 C196.95964,13.7421875 197.684893,13.8684883 198.21875,14.1210938 C198.752607,14.3736992 199.135416,14.7617161 199.367188,15.2851562 C199.598959,15.8085964 199.714844,16.4973916 199.714844,17.3515625 L199.714844,22 L198.425781,22 L198.425781,20.7421875 L198.332031,20.7421875 C198.201822,21.0078138 197.990887,21.2499989 197.699219,21.46875 C197.407551,21.6875011 197.06771,21.8593744 196.679688,21.984375 C196.291665,22.1093756 195.897137,22.171875 195.496094,22.171875 C194.636714,22.1666666 193.963544,21.9388043 193.476562,21.4882812 C192.989581,21.0377582 192.748698,20.4062541 192.753906,19.59375 C192.753906,18.8906215 193.024737,18.307294 193.566406,17.84375 C194.108076,17.380206 194.858068,17.0807298 195.816406,16.9453125 C196.123699,16.8984373 196.427082,16.8671876 196.726562,16.8515625 L197.361128,16.8247768 L197.361128,16.8247768 L198.402344,16.7890625 C198.360677,16.3359352 198.253907,15.9687514 198.082031,15.6875 C197.910155,15.4062486 197.651043,15.1979173 197.304688,15.0625 C196.958332,14.9270827 196.503909,14.859375 195.941406,14.859375 C195.680988,14.859375 195.343752,14.9127599 194.929688,15.0195312 C194.515623,15.1263026 194.100262,15.2864573 193.683594,15.5 L193.457031,14.453125 C193.790366,14.249999 194.213539,14.0807298 194.726562,13.9453125 C195.239586,13.8098952 195.678384,13.7421875 196.042969,13.7421875 Z M195.855469,21.0390625 C196.246096,21.0390625 196.618488,20.9479176 196.972656,20.765625 C197.326825,20.5833324 197.631509,20.3294287 197.886719,20.0039062 C198.141928,19.6783838 198.321614,19.3098979 198.425781,18.8984375 L198.425781,17.8671875 C197.399734,17.8932293 196.558597,17.9583328 195.902344,18.0625 C195.313799,18.1562505 194.85547,18.333332 194.527344,18.59375 C194.199217,18.854168 194.035156,19.1796855 194.035156,19.5703125 C194.035156,20.0442732 194.194009,20.4075508 194.511719,20.6601562 C194.829429,20.9127617 195.277341,21.0390625 195.855469,21.0390625 Z M203.925781,20.25 L203.925781,22 L202.175781,22 L202.175781,20.25 L203.925781,20.25 Z M210.511719,13.734375 C211.214847,13.734375 211.846351,13.9166648 212.40625,14.28125 C212.966149,14.6458352 213.404946,15.1588509 213.722656,15.8203125 C214.040366,16.4817741 214.199219,17.2421832 214.199219,18.1015625 C214.199219,18.8984415 214.044272,19.6015595 213.734375,20.2109375 C213.424478,20.8203155 212.993492,21.2929671 212.441406,21.6289062 C211.88932,21.9648454 211.259118,22.1328125 210.550781,22.1328125 C209.993487,22.1328125 209.488284,22.0000013 209.035156,21.734375 C208.582029,21.4687487 208.217449,21.1171897 207.941406,20.6796875 L207.863281,20.6796875 L207.863281,24.8671875 L206.503906,24.8671875 L206.503906,13.875 L207.863281,13.875 L207.863281,15.21875 L207.949219,15.21875 C208.240887,14.7708311 208.622393,14.4114597 209.09375,14.140625 C209.565107,13.8697903 210.037758,13.734375 210.511719,13.734375 Z M210.355469,21.0546875 C210.834638,21.0546875 211.263019,20.9309908 211.640625,20.6835938 C212.018231,20.4361967 212.312499,20.089846 212.523438,19.6445312 C212.734376,19.1992165 212.839844,18.6848988 212.839844,18.1015625 C212.839844,17.4609343 212.734376,16.8958358 212.523438,16.40625 C212.312499,15.9166642 212.018231,15.5364597 211.640625,15.265625 C211.263019,14.9947903 210.834638,14.859375 210.355469,14.859375 C209.933592,14.859375 209.539064,14.9596344 209.171875,15.1601562 C208.804686,15.3606781 208.503907,15.6432273 208.269531,16.0078125 C208.035155,16.3723977 207.89974,16.7942684 207.863281,17.2734375 L207.863281,18.765625 C207.89974,19.171877 208.040363,19.5507795 208.285156,19.9023438 C208.529949,20.253908 208.837238,20.5338531 209.207031,20.7421875 C209.576825,20.9505219 209.959633,21.0546875 210.355469,21.0546875 Z M223.144531,10.4140625 L223.144531,22 L221.785156,22 L221.785156,20.6875 L221.707031,20.6875 C221.430988,21.1250022 221.066409,21.4765612 220.613281,21.7421875 C220.160154,22.0078138 219.654951,22.140625 219.097656,22.140625 C218.389319,22.140625 217.759117,21.9726579 217.207031,21.6367188 C216.654945,21.3007796 216.22396,20.828128 215.914062,20.21875 C215.604165,19.609372 215.449219,18.906254 215.449219,18.109375 C215.449219,17.2499957 215.608071,16.4895866 215.925781,15.828125 C216.243491,15.1666634 216.682289,14.6536477 217.242188,14.2890625 C217.802086,13.9244773 218.43359,13.7421875 219.136719,13.7421875 C219.610679,13.7421875 220.083331,13.8776028 220.554688,14.1484375 C221.026044,14.4192722 221.407551,14.7786436 221.699219,15.2265625 L221.785156,15.2265625 L221.785156,10.4140625 L223.144531,10.4140625 Z M219.292969,21.0625 C219.688804,21.0625 220.071613,20.9583344 220.441406,20.75 C220.8112,20.5416656 221.118488,20.2617205 221.363281,19.9101562 C221.608074,19.558592 221.748698,19.1796895 221.785156,18.7734375 L221.785156,17.28125 C221.748698,16.8020809 221.613282,16.3802102 221.378906,16.015625 C221.14453,15.6510398 220.843752,15.3684906 220.476562,15.1679688 C220.109373,14.9674469 219.714846,14.8671875 219.292969,14.8671875 C218.8138,14.8671875 218.385419,15.0026028 218.007812,15.2734375 C217.630206,15.5442722 217.335939,15.9244767 217.125,16.4140625 C216.914061,16.9036483 216.808594,17.4687468 216.808594,18.109375 C216.808594,18.6927113 216.914061,19.207029 217.125,19.6523438 C217.335939,20.0976585 217.630206,20.4440092 218.007812,20.6914062 C218.385419,20.9388033 218.8138,21.0625 219.292969,21.0625 Z M228.730469,11.5078125 C228.464842,11.5078125 228.255209,11.572916 228.101562,11.703125 C227.947916,11.833334 227.835938,12.0416652 227.765625,12.328125 C227.695312,12.6145848 227.657552,12.9999976 227.652344,13.484375 L227.652344,13.875 L230.144531,13.875 L230.144531,14.9921875 L227.652344,14.9921875 L227.660156,22 L226.308594,22 L226.300781,14.9921875 L224.628906,14.9921875 L224.628906,13.875 L226.300781,13.875 L226.300781,13.28125 C226.30599,12.5677048 226.390624,11.9987 226.554688,11.5742188 C226.718751,11.1497375 226.977863,10.8424489 227.332031,10.6523438 C227.6862,10.4622386 228.160153,10.3671875 228.753906,10.3671875 C228.946616,10.3671875 229.179686,10.4036455 229.453125,10.4765625 C229.726564,10.5494795 229.95703,10.6380203 230.144531,10.7421875 L230.144531,11.8203125 C229.701821,11.6119781 229.230471,11.5078125 228.730469,11.5078125 Z" id="data.pdf" fill="#333333" fill-rule="nonzero"></path>
                        <path d="M16,10 C19.3137085,10 22,12.6862915 22,16 C22,19.3137085 19.3137085,22 16,22 C12.6862915,22 10,19.3137085 10,16 C10,12.6862915 12.6862915,10 16,10 Z M36,10 C39.3137085,10 42,12.6862915 42,16 C42,19.3137085 39.3137085,22 36,22 C32.6862915,22 30,19.3137085 30,16 C30,12.6862915 32.6862915,10 36,10 Z M56,10 C59.3137085,10 62,12.6862915 62,16 C62,19.3137085 59.3137085,22 56,22 C52.6862915,22 50,19.3137085 50,16 C50,12.6862915 52.6862915,10 56,10 Z" id="Combined-Shape" fill="#EBEBEB"></path>
                    </g>
                    <g id="map" transform="translate(80.000000, 308.000000)">
                        <path d="M347,31 C282.934969,31 231,80.0248199 231,140.5 C231,200.97518 282.934969,250 347,250 L347,250" id="Path" stroke="#444444" stroke-width="4"></path>
                        <path d="M347,140.5 L239.5,140.5" id="Path-52" stroke="#444444" stroke-width="4"></path>
                        <g id="Dynamic-group" transform="translate(0.000000, 92.000000)">
                            <rect id="BG" fill="#3B86CB" x="0.5" y="0" width="279" height="96" rx="8"></rect>
                            <path d="M45.6875,56.46875 L56.546875,56.46875 L56.546875,59 L42.875,59 L42.875,36.453125 L56.171875,36.453125 L56.171875,38.984375 L45.6875,38.984375 L45.6875,46.25 L55.203125,46.25 L55.203125,48.65625 L45.6875,48.65625 L45.6875,56.46875 Z M65.921875,59.28125 C64.8072861,59.28125 63.6458394,59.0807312 62.4375,58.6796875 C61.2291606,58.2786438 60.2031292,57.7500033 59.359375,57.09375 L60.125,55.0625 C61.1041716,55.656253 62.1223905,56.1354148 63.1796875,56.5 C64.2369845,56.8645852 65.135413,57.046875 65.875,57.046875 C66.4479195,57.046875 66.9583311,56.953125 67.40625,56.765625 C67.8541689,56.5781241 68.208332,56.31771 68.46875,55.984375 C68.729168,55.65104 68.859375,55.2708355 68.859375,54.84375 C68.8697917,54.1874967 68.6067735,53.6328148 68.0703125,53.1796875 C67.5751177,52.7614162 66.7537496,52.3453696 65.6061865,51.931537 L65.3125,51.828125 C63.5312411,51.2239553 62.2395873,50.5182332 61.4375,49.7109375 C60.6354127,48.9036418 60.234375,47.9270891 60.234375,46.78125 C60.234375,45.8854122 60.4505187,45.1145866 60.8828125,44.46875 C61.3151063,43.8229134 61.9401001,43.3255226 62.7578125,42.9765625 C63.5755249,42.6276024 64.5572859,42.453125 65.703125,42.453125 C66.5781294,42.453125 67.4374958,42.5572906 68.28125,42.765625 C69.1250042,42.9739594 69.8281222,43.2708314 70.390625,43.65625 L70.390625,46.015625 C69.7447884,45.5885395 69.0052125,45.2604178 68.171875,45.03125 C67.3385375,44.8020822 66.5312539,44.6875 65.75,44.6875 C64.8749956,44.6875 64.1875025,44.8489567 63.6875,45.171875 C63.1874975,45.4947933 62.9375,45.9427055 62.9375,46.515625 C62.9375,47.1927117 63.2317679,47.7864558 63.8203125,48.296875 C64.3598117,48.7647593 65.1903343,49.1976259 66.3119019,49.5954857 L66.625,49.703125 C68.3437586,50.2760445 69.5989544,50.9635377 70.390625,51.765625 C71.1822956,52.5677123 71.578125,53.5416609 71.578125,54.6875 C71.578125,55.5729211 71.3385441,56.367184 70.859375,57.0703125 C70.3802059,57.773441 69.7109418,58.3177064 68.8515625,58.703125 C67.9921832,59.0885436 67.0156305,59.28125 65.921875,59.28125 Z M80.328125,59.28125 C79.2135361,59.28125 78.0520894,59.0807312 76.84375,58.6796875 C75.6354106,58.2786438 74.6093792,57.7500033 73.765625,57.09375 L74.53125,55.0625 C75.5104216,55.656253 76.5286405,56.1354148 77.5859375,56.5 C78.6432345,56.8645852 79.541663,57.046875 80.28125,57.046875 C80.8541695,57.046875 81.3645811,56.953125 81.8125,56.765625 C82.2604189,56.5781241 82.614582,56.31771 82.875,55.984375 C83.135418,55.65104 83.265625,55.2708355 83.265625,54.84375 C83.2760417,54.1874967 83.0130235,53.6328148 82.4765625,53.1796875 C81.9813677,52.7614162 81.1599996,52.3453696 80.0124365,51.931537 L79.71875,51.828125 C77.9374911,51.2239553 76.6458373,50.5182332 75.84375,49.7109375 C75.0416627,48.9036418 74.640625,47.9270891 74.640625,46.78125 C74.640625,45.8854122 74.8567687,45.1145866 75.2890625,44.46875 C75.7213563,43.8229134 76.3463501,43.3255226 77.1640625,42.9765625 C77.9817749,42.6276024 78.9635359,42.453125 80.109375,42.453125 C80.9843794,42.453125 81.8437458,42.5572906 82.6875,42.765625 C83.5312542,42.9739594 84.2343722,43.2708314 84.796875,43.65625 L84.796875,46.015625 C84.1510384,45.5885395 83.4114625,45.2604178 82.578125,45.03125 C81.7447875,44.8020822 80.9375039,44.6875 80.15625,44.6875 C79.2812456,44.6875 78.5937525,44.8489567 78.09375,45.171875 C77.5937475,45.4947933 77.34375,45.9427055 77.34375,46.515625 C77.34375,47.1927117 77.6380179,47.7864558 78.2265625,48.296875 C78.7660617,48.7647593 79.5965843,49.1976259 80.7181519,49.5954857 L81.03125,49.703125 C82.7500086,50.2760445 84.0052044,50.9635377 84.796875,51.765625 C85.5885456,52.5677123 85.984375,53.5416609 85.984375,54.6875 C85.984375,55.5729211 85.7447941,56.367184 85.265625,57.0703125 C84.7864559,57.773441 84.1171918,58.3177064 83.2578125,58.703125 C82.3984332,59.0885436 81.4218805,59.28125 80.328125,59.28125 Z M94.90625,42.484375 C96.7395925,42.484375 98.1900988,42.7369766 99.2578125,43.2421875 C100.325526,43.7473984 101.091144,44.5234323 101.554688,45.5703125 C102.018231,46.6171927 102.25,47.9947831 102.25,49.703125 L102.25,59 L99.671875,59 L99.671875,56.484375 L99.484375,56.484375 C99.223957,57.0156277 98.8020863,57.4999978 98.21875,57.9375 C97.6354137,58.3750022 96.955733,58.7187488 96.1796875,58.96875 C95.403642,59.2187512 94.6145873,59.34375 93.8125,59.34375 C92.0937414,59.3333333 90.7474007,58.8776087 89.7734375,57.9765625 C88.7994743,57.0755163 88.3177083,55.8125081 88.328125,54.1875 C88.328125,52.781243 88.8697863,51.614588 89.953125,50.6875 C91.0364637,49.760412 92.5364488,49.1614597 94.453125,48.890625 C95.0677114,48.7968745 95.6744762,48.7343752 96.2734375,48.703125 L96.9548612,48.671875 C97.4641193,48.6510417 98.0833297,48.6302084 98.8125,48.609375 L99.625,48.578125 C99.5416662,47.6718705 99.3281267,46.9375028 98.984375,46.375 C98.6406233,45.8124972 98.1223993,45.3958347 97.4296875,45.125 C96.7369757,44.8541653 95.8281306,44.71875 94.703125,44.71875 C94.1822891,44.71875 93.5078166,44.8255198 92.6796875,45.0390625 C91.8515584,45.2526052 91.0208375,45.5729145 90.1875,46 L89.734375,43.90625 C90.401045,43.499998 91.2473907,43.1614597 92.2734375,42.890625 C93.2994843,42.6197903 94.1770797,42.484375 94.90625,42.484375 Z M94.53125,57.078125 C95.3125039,57.078125 96.0572881,56.8958352 96.765625,56.53125 C97.4739619,56.1666648 98.0833308,55.6588574 98.59375,55.0078125 C99.1041692,54.3567676 99.4635406,53.6197958 99.671875,52.796875 L99.671875,50.734375 C97.6197814,50.7864586 95.9375066,50.9166656 94.625,51.125 C93.4479108,51.3125009 92.5312533,51.6666641 91.875,52.1875 C91.2187467,52.7083359 90.890625,53.3593711 90.890625,54.140625 C90.890625,55.0885464 91.2083302,55.8151016 91.84375,56.3203125 C92.4791698,56.8255234 93.3749942,57.078125 94.53125,57.078125 Z M119.84375,42.75 L112.015625,61.203125 C111.453122,62.536465 110.838545,63.4583308 110.171875,63.96875 C109.505205,64.4791692 108.796879,64.734375 108.046875,64.734375 L106.609375,64.734375 L106.609375,62.515625 L107.171875,62.515625 C107.578127,62.515625 107.919269,62.4192718 108.195312,62.2265625 C108.471356,62.0338532 108.710936,61.7656267 108.914062,61.421875 L109.061439,61.1618439 C109.247332,60.8224668 109.482059,60.3570631 109.765625,59.765625 L109.953125,59.390625 L110.296875,58.65625 L104.203125,42.75 L107.046875,42.75 L111.5625,55.21875 L111.78125,55.21875 L114.152342,49.6484407 C115.029944,47.5755293 115.994786,45.2864709 117.046875,42.78125 L119.84375,42.75 Z M154.59375,36.453125 L157.609375,36.453125 L150.625,59 L147.875,59 L143.609375,46.671875 L143.359375,46.671875 L138.6875,59 L135.9375,59 L127.8125,36.453125 L130.828125,36.453125 L137.265625,54.9375 L137.484375,54.9375 L142.171875,42.5625 L140.0625,36.453125 L142.921875,36.453125 L144.953125,42.40625 L144.984375,42.40625 L144.96875,42.453125 L149.15625,54.703125 L154.59375,36.453125 Z M162.671875,45.296875 C163.109377,44.369787 163.776037,43.6692732 164.671875,43.1953125 C165.567713,42.7213518 166.749993,42.4791667 168.21875,42.46875 L168.21875,44.984375 C166.21874,44.984375 164.796879,45.4739534 163.953125,46.453125 C163.109371,47.4322966 162.682292,48.7864497 162.671875,50.515625 L162.671875,59 L159.953125,59 L159.953125,42.75 L162.671875,42.75 L162.671875,45.296875 Z M171.140625,36.46875 L173.796875,36.46875 L173.796875,39.125 L171.140625,39.125 L171.140625,36.46875 Z M171.109375,42.75 L173.828125,42.75 L173.828125,59 L171.109375,59 L171.109375,42.75 Z M181.359375,45.15625 L181.359375,53.515625 C181.359375,54.3802127 181.421874,55.0182271 181.546875,55.4296875 C181.671876,55.8411479 181.880207,56.1145827 182.171875,56.25 C182.463543,56.3854173 182.906247,56.453125 183.5,56.453125 L184.03125,56.453125 L184.03125,59 L182.78125,59 C181.697911,59 180.861982,58.8489598 180.273438,58.546875 C179.684893,58.2447902 179.265626,57.7291703 179.015625,57 C178.765624,56.2708297 178.640625,55.2187569 178.640625,53.84375 L178.640625,45.15625 L176.640625,45.15625 L176.640625,42.765625 L178.640625,42.765625 L178.640625,38.28125 L181.359375,37.3125 L181.359375,42.765625 L184.296875,42.765625 L184.296875,45.15625 L181.359375,45.15625 Z M191.203125,45.15625 L191.203125,53.515625 C191.203125,54.3802127 191.265624,55.0182271 191.390625,55.4296875 C191.515626,55.8411479 191.723957,56.1145827 192.015625,56.25 C192.307293,56.3854173 192.749997,56.453125 193.34375,56.453125 L193.875,56.453125 L193.875,59 L192.625,59 C191.541661,59 190.705732,58.8489598 190.117188,58.546875 C189.528643,58.2447902 189.109376,57.7291703 188.859375,57 C188.609374,56.2708297 188.484375,55.2187569 188.484375,53.84375 L188.484375,45.15625 L186.484375,45.15625 L186.484375,42.765625 L188.484375,42.765625 L188.484375,38.28125 L191.203125,37.3125 L191.203125,42.765625 L194.140625,42.765625 L194.140625,45.15625 L191.203125,45.15625 Z M197.609375,36.46875 L200.265625,36.46875 L200.265625,39.125 L197.609375,39.125 L197.609375,36.46875 Z M197.578125,42.75 L200.296875,42.75 L200.296875,59 L197.578125,59 L197.578125,42.75 Z M212.359375,42.328125 C214.421885,42.328125 215.992182,42.8671821 217.070312,43.9453125 C218.148443,45.0234429 218.6875,46.5937397 218.6875,48.65625 L218.6875,59 L215.96875,59 L215.96875,49.234375 C215.96875,47.7343675 215.593754,46.5911498 214.84375,45.8046875 C214.093746,45.0182252 213.000007,44.625 211.5625,44.625 C210.791663,44.625 210.088545,44.8046857 209.453125,45.1640625 C208.817705,45.5234393 208.315106,46.0260384 207.945312,46.671875 C207.575519,47.3177116 207.390625,48.0520792 207.390625,48.875 L207.390625,59 L204.671875,59 L204.671875,42.75 L207.390625,42.75 L207.390625,45.109375 L207.515625,45.109375 C207.921877,44.2447873 208.570308,43.5651066 209.460938,43.0703125 C210.351567,42.5755184 211.317703,42.328125 212.359375,42.328125 Z M229.265625,42.484375 C230.192713,42.484375 231.119787,42.7473932 232.046875,43.2734375 C232.973963,43.7994818 233.734372,44.4947873 234.328125,45.359375 L234.5625,45.359375 L234.5625,42.75 L237.28125,42.75 L237.28125,56.96875 C237.208333,59.7916808 236.557298,61.8723891 235.328125,63.2109375 C234.098952,64.5494859 232.250012,65.255208 229.78125,65.328125 C228.739578,65.3593752 227.731776,65.2526054 226.757812,65.0078125 C225.783849,64.7630196 224.76563,64.3593778 223.703125,63.796875 L224.484375,61.515625 C225.48438,62.0468777 226.395829,62.4062491 227.21875,62.59375 C228.041671,62.7812509 228.880204,62.875 229.734375,62.875 C231.296883,62.875 232.492183,62.3541719 233.320312,61.3125 C234.148442,60.2708281 234.5625,58.8229259 234.5625,56.96875 L234.5625,56.53125 L234.296875,56.53125 C233.734372,57.3541708 233.010421,58.0182266 232.125,58.5234375 C231.239579,59.0286484 230.260422,59.28125 229.1875,59.28125 C227.770826,59.28125 226.510422,58.9453159 225.40625,58.2734375 C224.302078,57.6015591 223.440107,56.6562561 222.820312,55.4375 C222.200518,54.2187439 221.890625,52.812508 221.890625,51.21875 C221.890625,49.4999914 222.20833,47.9791733 222.84375,46.65625 C223.47917,45.3333267 224.356765,44.3072953 225.476562,43.578125 C226.59636,42.8489547 227.859368,42.484375 229.265625,42.484375 Z M229.578125,44.734375 C228.619787,44.734375 227.763025,45.0052056 227.007812,45.546875 C226.2526,46.0885444 225.664065,46.8489534 225.242188,47.828125 C224.82031,48.8072966 224.609375,49.9374936 224.609375,51.21875 C224.609375,52.3854225 224.82031,53.414058 225.242188,54.3046875 C225.664065,55.195317 226.2526,55.8880184 227.007812,56.3828125 C227.763025,56.8776066 228.619787,57.125 229.578125,57.125 C230.369796,57.125 231.135413,56.9166687 231.875,56.5 C232.614587,56.0833313 233.229164,55.523441 233.71875,54.8203125 C234.208336,54.117184 234.489583,53.3593791 234.5625,52.546875 L234.5625,52.546875 L234.5625,49.5625 C234.489583,48.6041619 234.218752,47.7604203 233.75,47.03125 C233.281248,46.3020797 232.679691,45.7369812 231.945312,45.3359375 C231.210934,44.9348938 230.421879,44.734375 229.578125,44.734375 Z" id="EssayWritting" fill="#FFFFFF" fill-rule="nonzero"></path>
                        </g>
                        <g id="Dynamic-group" transform="translate(347.000000, 0.000000)">
                            <rect id="BG" fill="#E8E8E8" x="0" y="0" width="134" height="60" rx="8"></rect>
                            <path d="M41.5859375,37.3710938 C42.6718804,37.3710938 43.6503863,37.1289087 44.5214844,36.6445312 C45.3925825,36.1601538 46.1406219,35.4492234 46.765625,34.5117188 L48.125,35.6015625 C47.4453091,36.8046935 46.5566461,37.7187469 45.4589844,38.34375 C44.3613226,38.9687531 43.0703199,39.28125 41.5859375,39.28125 C39.9921795,39.28125 38.574225,38.91016 37.3320312,38.1679688 C36.0898375,37.4257775 35.1152379,36.3906316 34.4082031,35.0625 C33.7011683,33.7343684 33.3359376,32.2265709 33.3125,30.5390625 C33.3359376,28.8515541 33.7011683,27.3457097 34.4082031,26.0214844 C35.1152379,24.697259 36.0898375,23.6640662 37.3320312,22.921875 C38.574225,22.1796838 39.9921795,21.8085938 41.5859375,21.8085938 C43.0703199,21.8085938 44.3613226,22.1191375 45.4589844,22.7402344 C46.5566461,23.3613312 47.4453091,24.2734315 48.125,25.4765625 L46.8945312,26.4609375 C46.2851532,25.554683 45.5273483,24.8730492 44.6210938,24.4160156 C43.7148392,23.9589821 42.7031306,23.7304688 41.5859375,23.7304688 C40.3984316,23.7304688 39.3418015,24.0195284 38.4160156,24.5976562 C37.4902297,25.1757841 36.7656276,25.9804636 36.2421875,27.0117188 C35.7187474,28.0429739 35.4453126,29.2187434 35.421875,30.5390625 C35.4453126,31.8593816 35.7187474,33.0371042 36.2421875,34.0722656 C36.7656276,35.1074271 37.4902297,35.9160127 38.4160156,36.4980469 C39.3418015,37.080081 40.3984316,37.3710938 41.5859375,37.3710938 Z M54.9335938,26.6132812 C56.3086006,26.6132812 57.3964804,26.8027325 58.1972656,27.1816406 C58.9980509,27.5605488 59.5722639,28.1425742 59.9199219,28.9277344 C60.2675799,29.7128946 60.4414062,30.7460873 60.4414062,32.0273438 L60.4414062,39 L58.5078125,39 L58.5078125,37.1132812 L58.3671875,37.1132812 C58.171874,37.5117207 57.8554709,37.8749984 57.4179688,38.203125 C56.9804666,38.5312516 56.470706,38.7890616 55.8886719,38.9765625 C55.3066377,39.1640634 54.7148468,39.2578125 54.1132812,39.2578125 C52.8242123,39.25 51.8144568,38.9082065 51.0839844,38.2324219 C50.353512,37.5566372 49.9921875,36.6093811 50,35.390625 C50,34.3359322 50.4062459,33.460941 51.21875,32.765625 C52.0312541,32.070309 53.1562428,31.6210948 54.59375,31.4179688 C55.0546898,31.3476559 55.5097634,31.3007814 55.9589844,31.2773438 L56.542633,31.2509765 C56.9103688,31.2363281 57.3505834,31.2216798 57.8632812,31.2070312 L58.4726562,31.1835938 C58.4101559,30.5039029 58.2500013,29.9531271 57.9921875,29.53125 C57.7343737,29.1093729 57.3457057,28.796876 56.8261719,28.59375 C56.306638,28.390624 55.6250042,28.2890625 54.78125,28.2890625 C54.390623,28.2890625 53.8847687,28.3691398 53.2636719,28.5292969 C52.642575,28.6894539 52.0195344,28.9296859 51.3945312,29.25 L51.0546875,27.6796875 C51.55469,27.3749985 52.1894493,27.1210948 52.9589844,26.9179688 C53.7285195,26.7148427 54.386716,26.6132812 54.9335938,26.6132812 Z M54.6523438,37.5585938 C55.2382842,37.5585938 55.7968723,37.4218764 56.328125,37.1484375 C56.8593777,36.8749986 57.3164043,36.4941431 57.6992188,36.0058594 C58.0820332,35.5175757 58.3515617,34.9648468 58.5078125,34.3476562 L58.5078125,32.8007812 C56.9687423,32.8398439 55.7070362,32.9374992 54.7226562,33.09375 C53.8398393,33.2343757 53.1523462,33.499998 52.6601562,33.890625 C52.1679663,34.281252 51.921875,34.7695283 51.921875,35.3554688 C51.921875,36.0664098 52.1601539,36.6113262 52.6367188,36.9902344 C53.1132836,37.3691425 53.7851519,37.5585938 54.6523438,37.5585938 Z M67.6484375,39.2109375 C66.8124958,39.2109375 65.9414108,39.0605484 65.0351562,38.7597656 C64.1289017,38.4589829 63.3593782,38.0625025 62.7265625,37.5703125 L63.3007812,36.046875 C64.0351599,36.4921897 64.7988242,36.8515611 65.5917969,37.125 C66.3847696,37.3984389 67.058591,37.5351562 67.6132812,37.5351562 C68.0429709,37.5351562 68.4257796,37.4648445 68.7617188,37.3242188 C69.0976579,37.183593 69.3632803,36.9882825 69.5585938,36.7382812 C69.7539072,36.48828 69.8515625,36.2031266 69.8515625,35.8828125 C69.859375,35.3906225 69.6621114,34.9746111 69.2597656,34.6347656 C68.8976544,34.3289047 68.3029919,34.02463 67.4757629,33.721934 L67.1914062,33.6210938 C65.8554621,33.1679665 64.8867218,32.6386749 64.2851562,32.0332031 C63.6835907,31.4277313 63.3828125,30.6953168 63.3828125,29.8359375 C63.3828125,29.1640591 63.5449203,28.5859399 63.8691406,28.1015625 C64.193361,27.6171851 64.6621063,27.2441419 65.2753906,26.9824219 C65.8886749,26.7207018 66.6249957,26.5898438 67.484375,26.5898438 C68.1406283,26.5898438 68.7851531,26.667968 69.4179688,26.8242188 C70.0507844,26.9804695 70.5781229,27.2031236 71,27.4921875 L71,29.2617188 C70.5156226,28.9414046 69.9609406,28.6953134 69.3359375,28.5234375 C68.7109344,28.3515616 68.1054717,28.265625 67.5195312,28.265625 C66.863278,28.265625 66.3476581,28.3867175 65.9726562,28.6289062 C65.5976544,28.871095 65.4101562,29.2070291 65.4101562,29.6367188 C65.4101562,30.1445338 65.6308572,30.5898438 66.0722656,30.9726562 C66.4695332,31.3171892 67.0772035,31.6364053 67.8952919,31.9303122 L68.1757812,32.0273438 C69.4648502,32.4570334 70.406247,32.9726532 71,33.5742188 C71.593753,34.1757843 71.890625,34.9062457 71.890625,35.765625 C71.890625,36.4296908 71.7109393,37.025388 71.3515625,37.5527344 C70.9921857,38.0800808 70.4902376,38.4882798 69.8457031,38.7773438 C69.2011687,39.0664077 68.4687541,39.2109375 67.6484375,39.2109375 Z M79.1210938,26.6015625 C80.1835991,26.6015625 81.1386676,26.8574193 81.9863281,27.3691406 C82.8339886,27.8808619 83.4960914,28.5898392 83.9726562,29.4960938 C84.4492211,30.4023483 84.6875,31.4296818 84.6875,32.578125 C84.6875,32.9296893 84.6640627,33.1874992 84.6171875,33.3515625 L75.6875,33.3515625 C75.6875,34.6562565 76.0429652,35.6581996 76.7539062,36.3574219 C77.4648473,37.0566441 78.5117118,37.4296873 79.8945312,37.4765625 C80.441409,37.4921876 81.0605434,37.4062509 81.7519531,37.21875 C82.4433628,37.0312491 83.0195289,36.7851578 83.4804688,36.4804688 L83.8554688,38.1210938 C83.2617158,38.4882831 82.6230503,38.7734365 81.9394531,38.9765625 C81.255856,39.1796885 80.5507849,39.28125 79.8242188,39.28125 C78.5507749,39.28125 77.4511765,39.0292994 76.5253906,38.5253906 C75.5996047,38.0214819 74.8886744,37.2968797 74.3925781,36.3515625 C73.8964819,35.4062453 73.6484375,34.2851627 73.6484375,32.9882812 C73.6484375,31.7617126 73.8867164,30.6640673 74.3632812,29.6953125 C74.8398461,28.7265577 75.4941365,27.9687527 76.3261719,27.421875 C77.1582073,26.8749973 78.0898386,26.6015625 79.1210938,26.6015625 Z M79.2148438,28.3710938 C78.5351529,28.3710938 77.9277371,28.5175767 77.3925781,28.8105469 C76.8574192,29.1035171 76.4394546,29.5117161 76.1386719,30.0351562 C75.8378891,30.5585964 75.6875,31.1484342 75.6875,31.8046875 L75.6875,31.8046875 L82.6953125,31.8046875 C82.6953125,31.1406217 82.5468765,30.5468776 82.25,30.0234375 C81.9531235,29.4999974 81.5410183,29.0937514 81.0136719,28.8046875 C80.4863255,28.5156236 79.8867221,28.3710938 79.2148438,28.3710938 Z" id="Case" fill="#000000" fill-rule="nonzero"></path>
                            <g id="file" transform="translate(102.000000, 20.000000)" stroke="#000000" stroke-linejoin="round" stroke-width="1.5">
                                <path d="M6,6 L6,0 L14,0 C15.1045695,-2.02906125e-16 16,0.8954305 16,2 L16,18 C16,19.1045695 15.1045695,20 14,20 L2,20 C0.8954305,20 1.3527075e-16,19.1045695 0,18 L0,6 L0,6 L6,6 Z" id="Rectangle"></path>
                                <polygon id="Rectangle" points="6 0 6 6 0 6"></polygon>
                            </g>
                        </g>
                        <g id="Dynamic-group" transform="translate(347.000000, 110.000000)">
                            <rect id="BG" fill="#E8E8E8" x="0.5" y="0" width="154" height="61" rx="8"></rect>
                            <path d="M46.9609375,39 L44.6289062,33.65625 L37.9140625,33.65625 L35.6523438,39 L33.25,39 L40.9609375,22.0078125 L41.5234375,22.0078125 L49.3398438,39 L46.9609375,39 Z M38.7226562,31.7578125 L43.8085938,31.7578125 L41.2773438,25.9453125 L41.1835938,25.9453125 L38.7226562,31.7578125 Z M57.2734375,26.4960938 C58.8203202,26.4960938 59.9980428,26.9003866 60.8066406,27.7089844 C61.6152384,28.5175822 62.0195312,29.6953048 62.0195312,31.2421875 L62.0195312,39 L59.9804688,39 L59.9804688,31.6757812 C59.9804688,30.5507756 59.6992216,29.6933623 59.1367188,29.1035156 C58.5742159,28.5136689 57.7539116,28.21875 56.6757812,28.21875 C56.0976534,28.21875 55.5703149,28.3535143 55.09375,28.6230469 C54.6171851,28.8925795 54.2402358,29.2695288 53.9628906,29.7539062 C53.6855455,30.2382837 53.546875,30.7890594 53.546875,31.40625 L53.546875,39 L51.5078125,39 L51.5078125,26.8125 L53.546875,26.8125 L53.546875,28.5820312 L53.640625,28.5820312 C53.945314,27.9335905 54.4316373,27.42383 55.0996094,27.0527344 C55.7675815,26.6816388 56.4921836,26.4960938 57.2734375,26.4960938 Z M69.3554688,26.6132812 C70.7304756,26.6132812 71.8183554,26.8027325 72.6191406,27.1816406 C73.4199259,27.5605488 73.9941389,28.1425742 74.3417969,28.9277344 C74.6894549,29.7128946 74.8632812,30.7460873 74.8632812,32.0273438 L74.8632812,39 L72.9296875,39 L72.9296875,37.1132812 L72.7890625,37.1132812 C72.593749,37.5117207 72.2773459,37.8749984 71.8398438,38.203125 C71.4023416,38.5312516 70.892581,38.7890616 70.3105469,38.9765625 C69.7285127,39.1640634 69.1367218,39.2578125 68.5351562,39.2578125 C67.2460873,39.25 66.2363318,38.9082065 65.5058594,38.2324219 C64.775387,37.5566372 64.4140625,36.6093811 64.421875,35.390625 C64.421875,34.3359322 64.8281209,33.460941 65.640625,32.765625 C66.4531291,32.070309 67.5781178,31.6210948 69.015625,31.4179688 C69.4765648,31.3476559 69.9316384,31.3007814 70.3808594,31.2773438 L70.964508,31.2509765 C71.3322438,31.2363281 71.7724584,31.2216798 72.2851562,31.2070312 L72.8945312,31.1835938 C72.8320309,30.5039029 72.6718763,29.9531271 72.4140625,29.53125 C72.1562487,29.1093729 71.7675807,28.796876 71.2480469,28.59375 C70.728513,28.390624 70.0468792,28.2890625 69.203125,28.2890625 C68.812498,28.2890625 68.3066437,28.3691398 67.6855469,28.5292969 C67.06445,28.6894539 66.4414094,28.9296859 65.8164062,29.25 L65.4765625,27.6796875 C65.976565,27.3749985 66.6113243,27.1210948 67.3808594,26.9179688 C68.1503945,26.7148427 68.808591,26.6132812 69.3554688,26.6132812 Z M69.0742188,37.5585938 C69.6601592,37.5585938 70.2187473,37.4218764 70.75,37.1484375 C71.2812527,36.8749986 71.7382793,36.4941431 72.1210938,36.0058594 C72.5039082,35.5175757 72.7734367,34.9648468 72.9296875,34.3476562 L72.9296875,32.8007812 C71.3906173,32.8398439 70.1289112,32.9374992 69.1445312,33.09375 C68.2617143,33.2343757 67.5742212,33.499998 67.0820312,33.890625 C66.5898413,34.281252 66.34375,34.7695283 66.34375,35.3554688 C66.34375,36.0664098 66.5820289,36.6113262 67.0585938,36.9902344 C67.5351586,37.3691425 68.2070269,37.5585938 69.0742188,37.5585938 Z M81.7421875,37.0898438 L81.7421875,39 L81.0742188,39 C80.2929648,39 79.6777366,38.8417985 79.2285156,38.5253906 C78.7792946,38.2089828 78.4570322,37.7207064 78.2617188,37.0605469 C78.0664053,36.4003873 77.96875,35.523443 77.96875,34.4296875 L77.96875,22.0898438 L80.0078125,22.0898438 L80.0078125,34.1953125 L80.0135995,34.7152792 C80.0271025,35.2844347 80.0642358,35.7224377 80.125,36.0292969 C80.2031254,36.4238301 80.3535145,36.699218 80.5761719,36.8554688 C80.7988292,37.0117195 81.1445289,37.0898438 81.6132812,37.0898438 L81.7421875,37.0898438 Z M94.8789062,26.8125 L89.0078125,40.6523438 C88.5859354,41.6523488 88.1250025,42.3437481 87.625,42.7265625 C87.1249975,43.1093769 86.5937528,43.3007812 86.03125,43.3007812 L84.953125,43.3007812 L84.953125,41.6367188 L85.375,41.6367188 C85.679689,41.6367188 85.9355458,41.5644538 86.1425781,41.4199219 C86.3496104,41.2753899 86.5292961,41.07422 86.6816406,40.8164062 L86.8072511,40.5937499 C86.8985596,40.4257814 87.0050044,40.2187511 87.1265864,39.9726573 L87.4609375,39.2929688 L87.71875,38.7421875 L83.1484375,26.8125 L85.28125,26.8125 L88.6679688,36.1640625 L88.8320312,36.1640625 L90.2680038,32.7942532 C91.0151905,31.0325254 91.8529365,29.0464265 92.78125,26.8359375 L94.8789062,26.8125 Z M101.089844,39.2109375 C100.253902,39.2109375 99.382817,39.0605484 98.4765625,38.7597656 C97.570308,38.4589829 96.8007844,38.0625025 96.1679688,37.5703125 L96.7421875,36.046875 C97.4765662,36.4921897 98.2402304,36.8515611 99.0332031,37.125 C99.8261758,37.3984389 100.499997,37.5351562 101.054688,37.5351562 C101.484377,37.5351562 101.867186,37.4648445 102.203125,37.3242188 C102.539064,37.183593 102.804687,36.9882825 103,36.7382812 C103.195313,36.48828 103.292969,36.2031266 103.292969,35.8828125 C103.300781,35.3906225 103.103518,34.9746111 102.701172,34.6347656 C102.339061,34.3289047 101.744398,34.02463 100.917169,33.721934 L100.632812,33.6210938 C99.2968683,33.1679665 98.328128,32.6386749 97.7265625,32.0332031 C97.124997,31.4277313 96.8242188,30.6953168 96.8242188,29.8359375 C96.8242188,29.1640591 96.9863265,28.5859399 97.3105469,28.1015625 C97.6347672,27.6171851 98.1035126,27.2441419 98.7167969,26.9824219 C99.3300812,26.7207018 100.066402,26.5898438 100.925781,26.5898438 C101.582035,26.5898438 102.226559,26.667968 102.859375,26.8242188 C103.492191,26.9804695 104.019529,27.2031236 104.441406,27.4921875 L104.441406,29.2617188 C103.957029,28.9414046 103.402347,28.6953134 102.777344,28.5234375 C102.152341,28.3515616 101.546878,28.265625 100.960938,28.265625 C100.304684,28.265625 99.7890644,28.3867175 99.4140625,28.6289062 C99.0390606,28.871095 98.8515625,29.2070291 98.8515625,29.6367188 C98.8515625,30.1445338 99.0722634,30.5898438 99.5136719,30.9726562 C99.9109395,31.3171892 100.51861,31.6364053 101.336698,31.9303122 L101.617188,32.0273438 C102.906256,32.4570334 103.847653,32.9726532 104.441406,33.5742188 C105.035159,34.1757843 105.332031,34.9062457 105.332031,35.765625 C105.332031,36.4296908 105.152346,37.025388 104.792969,37.5527344 C104.433592,38.0800808 103.931644,38.4882798 103.287109,38.7773438 C102.642575,39.0664077 101.91016,39.2109375 101.089844,39.2109375 Z M107.816406,22.1015625 L109.808594,22.1015625 L109.808594,24.09375 L107.816406,24.09375 L107.816406,22.1015625 Z M107.792969,26.8125 L109.832031,26.8125 L109.832031,39 L107.792969,39 L107.792969,26.8125 Z M117.214844,39.2109375 C116.378902,39.2109375 115.507817,39.0605484 114.601562,38.7597656 C113.695308,38.4589829 112.925784,38.0625025 112.292969,37.5703125 L112.867188,36.046875 C113.601566,36.4921897 114.36523,36.8515611 115.158203,37.125 C115.951176,37.3984389 116.624997,37.5351562 117.179688,37.5351562 C117.609377,37.5351562 117.992186,37.4648445 118.328125,37.3242188 C118.664064,37.183593 118.929687,36.9882825 119.125,36.7382812 C119.320313,36.48828 119.417969,36.2031266 119.417969,35.8828125 C119.425781,35.3906225 119.228518,34.9746111 118.826172,34.6347656 C118.464061,34.3289047 117.869398,34.02463 117.042169,33.721934 L116.757812,33.6210938 C115.421868,33.1679665 114.453128,32.6386749 113.851562,32.0332031 C113.249997,31.4277313 112.949219,30.6953168 112.949219,29.8359375 C112.949219,29.1640591 113.111327,28.5859399 113.435547,28.1015625 C113.759767,27.6171851 114.228513,27.2441419 114.841797,26.9824219 C115.455081,26.7207018 116.191402,26.5898438 117.050781,26.5898438 C117.707035,26.5898438 118.351559,26.667968 118.984375,26.8242188 C119.617191,26.9804695 120.144529,27.2031236 120.566406,27.4921875 L120.566406,29.2617188 C120.082029,28.9414046 119.527347,28.6953134 118.902344,28.5234375 C118.277341,28.3515616 117.671878,28.265625 117.085938,28.265625 C116.429684,28.265625 115.914064,28.3867175 115.539062,28.6289062 C115.164061,28.871095 114.976562,29.2070291 114.976562,29.6367188 C114.976562,30.1445338 115.197263,30.5898438 115.638672,30.9726562 C116.035939,31.3171892 116.64361,31.6364053 117.461698,31.9303122 L117.742188,32.0273438 C119.031256,32.4570334 119.972653,32.9726532 120.566406,33.5742188 C121.160159,34.1757843 121.457031,34.9062457 121.457031,35.765625 C121.457031,36.4296908 121.277346,37.025388 120.917969,37.5527344 C120.558592,38.0800808 120.056644,38.4882798 119.412109,38.7773438 C118.767575,39.0664077 118.03516,39.2109375 117.214844,39.2109375 Z" id="Analysis" fill="#000000" fill-rule="nonzero"></path>
                        </g>
                        <g id="Dynamic-group" transform="translate(347.000000, 219.000000)">
                            <rect id="BG" fill="#E8E8E8" x="0" y="0" width="185" height="61" rx="8"></rect>
                            <path d="M41.2128906,37.3710938 C42.2988336,37.3710938 43.2773394,37.1289087 44.1484375,36.6445312 C45.0195356,36.1601538 45.767575,35.4492234 46.3925781,34.5117188 L47.7519531,35.6015625 C47.0722622,36.8046935 46.1835992,37.7187469 45.0859375,38.34375 C43.9882758,38.9687531 42.697273,39.28125 41.2128906,39.28125 C39.6191327,39.28125 38.2011781,38.91016 36.9589844,38.1679688 C35.7167907,37.4257775 34.742191,36.3906316 34.0351562,35.0625 C33.3281215,33.7343684 32.9628907,32.2265709 32.9394531,30.5390625 C32.9628907,28.8515541 33.3281215,27.3457097 34.0351562,26.0214844 C34.742191,24.697259 35.7167907,23.6640662 36.9589844,22.921875 C38.2011781,22.1796838 39.6191327,21.8085938 41.2128906,21.8085938 C42.697273,21.8085938 43.9882758,22.1191375 45.0859375,22.7402344 C46.1835992,23.3613312 47.0722622,24.2734315 47.7519531,25.4765625 L46.5214844,26.4609375 C45.9121063,25.554683 45.1543014,24.8730492 44.2480469,24.4160156 C43.3417923,23.9589821 42.3300837,23.7304688 41.2128906,23.7304688 C40.0253847,23.7304688 38.9687546,24.0195284 38.0429688,24.5976562 C37.1171829,25.1757841 36.3925807,25.9804636 35.8691406,27.0117188 C35.3457005,28.0429739 35.0722657,29.2187434 35.0488281,30.5390625 C35.0722657,31.8593816 35.3457005,33.0371042 35.8691406,34.0722656 C36.3925807,35.1074271 37.1171829,35.9160127 38.0429688,36.4980469 C38.9687546,37.080081 40.0253847,37.3710938 41.2128906,37.3710938 Z M55.6386719,39.1992188 C54.4824161,39.1992188 53.4472702,38.9316433 52.5332031,38.3964844 C51.6191361,37.8613254 50.9062526,37.1152392 50.3945312,36.1582031 C49.8828099,35.2011671 49.6269531,34.1132873 49.6269531,32.8945312 C49.6269531,31.6757752 49.8828099,30.5898485 50.3945312,29.6367188 C50.9062526,28.683589 51.6191361,27.9394558 52.5332031,27.4042969 C53.4472702,26.8691379 54.4824161,26.6015625 55.6386719,26.6015625 C56.7949277,26.6015625 57.8281204,26.8691379 58.7382812,27.4042969 C59.6484421,27.9394558 60.3593724,28.683589 60.8710938,29.6367188 C61.3828151,30.5898485 61.6386719,31.6757752 61.6386719,32.8945312 C61.6386719,34.1132873 61.3828151,35.2011671 60.8710938,36.1582031 C60.3593724,37.1152392 59.6484421,37.8613254 58.7382812,38.3964844 C57.8281204,38.9316433 56.7949277,39.1992188 55.6386719,39.1992188 Z M55.6386719,37.5351562 C56.4043007,37.5351562 57.0898407,37.3378926 57.6953125,36.9433594 C58.3007843,36.5488262 58.7714827,36.0000035 59.1074219,35.296875 C59.4433611,34.5937465 59.6113281,33.7929732 59.6113281,32.8945312 C59.6113281,32.0039018 59.4433611,31.2070348 59.1074219,30.5039062 C58.7714827,29.8007777 58.3007843,29.2539082 57.6953125,28.8632812 C57.0898407,28.4726543 56.4043007,28.2773438 55.6386719,28.2773438 C54.873043,28.2773438 54.187503,28.4746074 53.5820312,28.8691406 C52.9765595,29.2636738 52.5039079,29.8105434 52.1640625,30.5097656 C51.8242171,31.2089879 51.6542969,32.0039018 51.6542969,32.8945312 C51.6542969,33.7929732 51.8242171,34.5937465 52.1640625,35.296875 C52.5039079,36.0000035 52.9765595,36.5488262 53.5820312,36.9433594 C54.187503,37.3378926 54.873043,37.5351562 55.6386719,37.5351562 Z M69.9824219,26.4960938 C71.5293046,26.4960938 72.7070272,26.9003866 73.515625,27.7089844 C74.3242228,28.5175822 74.7285156,29.6953048 74.7285156,31.2421875 L74.7285156,39 L72.6894531,39 L72.6894531,31.6757812 C72.6894531,30.5507756 72.4082059,29.6933623 71.8457031,29.1035156 C71.2832003,28.5136689 70.462896,28.21875 69.3847656,28.21875 C68.8066377,28.21875 68.2792993,28.3535143 67.8027344,28.6230469 C67.3261695,28.8925795 66.9492201,29.2695288 66.671875,29.7539062 C66.3945299,30.2382837 66.2558594,30.7890594 66.2558594,31.40625 L66.2558594,39 L64.2167969,39 L64.2167969,26.8125 L66.2558594,26.8125 L66.2558594,28.5820312 L66.3496094,28.5820312 C66.6542984,27.9335905 67.1406217,27.42383 67.8085938,27.0527344 C68.4765658,26.6816388 69.201168,26.4960938 69.9824219,26.4960938 Z M83.2480469,37.5351562 C83.8964876,37.5351562 84.5449186,37.3789078 85.1933594,37.0664062 C85.8418001,36.7539047 86.3925759,36.3203153 86.8457031,35.765625 L88.0292969,36.8085938 C87.4355439,37.5820351 86.7187542,38.1757792 85.8789062,38.5898438 C85.0390583,39.0039083 84.1621139,39.2109375 83.2480469,39.2109375 C82.0214782,39.2109375 80.9492233,38.9433621 80.03125,38.4082031 C79.1132767,37.8730442 78.4062525,37.128911 77.9101562,36.1757812 C77.41406,35.2226515 77.154297,34.1328186 77.1308594,32.90625 C77.154297,31.6796814 77.41406,30.5898485 77.9101562,29.6367188 C78.4062525,28.683589 79.1132767,27.9394558 80.03125,27.4042969 C80.9492233,26.8691379 82.0214782,26.6015625 83.2480469,26.6015625 C84.1621139,26.6015625 85.0390583,26.8085917 85.8789062,27.2226562 C86.7187542,27.6367208 87.4355439,28.2304649 88.0292969,29.0039062 L86.8457031,30.0117188 C86.3925759,29.4570285 85.8437532,29.0292984 85.1992188,28.7285156 C84.5546843,28.4277329 83.9043002,28.2773438 83.2480469,28.2773438 C82.4355428,28.2773438 81.7246124,28.4687481 81.1152344,28.8515625 C80.5058563,29.2343769 80.0332048,29.7753871 79.6972656,30.4746094 C79.3613264,31.1738316 79.185547,31.9843704 79.1699219,32.90625 C79.185547,33.8281296 79.3613264,34.6386684 79.6972656,35.3378906 C80.0332048,36.0371129 80.5058563,36.5781231 81.1152344,36.9609375 C81.7246124,37.3437519 82.4355428,37.5351562 83.2480469,37.5351562 Z M94.6152344,37.0898438 L94.6152344,39 L93.9472656,39 C93.1660117,39 92.5507835,38.8417985 92.1015625,38.5253906 C91.6523415,38.2089828 91.3300791,37.7207064 91.1347656,37.0605469 C90.9394521,36.4003873 90.8417969,35.523443 90.8417969,34.4296875 L90.8417969,22.0898438 L92.8808594,22.0898438 L92.8808594,34.1953125 L92.8866464,34.7152792 C92.9001494,35.2844347 92.9372827,35.7224377 92.9980469,36.0292969 C93.0761723,36.4238301 93.2265614,36.699218 93.4492188,36.8554688 C93.6718761,37.0117195 94.0175758,37.0898438 94.4863281,37.0898438 L94.6152344,37.0898438 Z M102.513672,39.2695312 C101.451167,39.2695312 100.517582,39.0449241 99.7128906,38.5957031 C98.9081991,38.1464821 98.2871116,37.5117229 97.8496094,36.6914062 C97.4121072,35.8710896 97.1933594,34.9257866 97.1933594,33.8554688 L97.1933594,26.8125 L99.2324219,26.8125 L99.2324219,33.8554688 C99.2324219,34.5898474 99.3691393,35.2363253 99.6425781,35.7949219 C99.916017,36.3535184 100.302732,36.7832016 100.802734,37.0839844 C101.302737,37.3847671 101.873044,37.5351562 102.513672,37.5351562 C103.1543,37.5351562 103.712888,37.3847671 104.189453,37.0839844 C104.666018,36.7832016 105.035155,36.3554715 105.296875,35.8007812 C105.558595,35.246091 105.689453,34.59766 105.689453,33.8554688 L105.689453,26.8125 L107.728516,26.8125 L107.728516,33.8554688 C107.728516,34.9257866 107.509768,35.8710896 107.072266,36.6914062 C106.634763,37.5117229 106.021488,38.1464821 105.232422,38.5957031 C104.443355,39.0449241 103.537114,39.2695312 102.513672,39.2695312 Z M115.111328,39.2109375 C114.275386,39.2109375 113.404301,39.0605484 112.498047,38.7597656 C111.591792,38.4589829 110.822269,38.0625025 110.189453,37.5703125 L110.763672,36.046875 C111.498051,36.4921897 112.261715,36.8515611 113.054688,37.125 C113.84766,37.3984389 114.521482,37.5351562 115.076172,37.5351562 C115.505862,37.5351562 115.88867,37.4648445 116.224609,37.3242188 C116.560549,37.183593 116.826171,36.9882825 117.021484,36.7382812 C117.216798,36.48828 117.314453,36.2031266 117.314453,35.8828125 C117.322266,35.3906225 117.125002,34.9746111 116.722656,34.6347656 C116.360545,34.3289047 115.765882,34.02463 114.938653,33.721934 L114.654297,33.6210938 C113.318353,33.1679665 112.349612,32.6386749 111.748047,32.0332031 C111.146481,31.4277313 110.845703,30.6953168 110.845703,29.8359375 C110.845703,29.1640591 111.007811,28.5859399 111.332031,28.1015625 C111.656252,27.6171851 112.124997,27.2441419 112.738281,26.9824219 C113.351566,26.7207018 114.087886,26.5898438 114.947266,26.5898438 C115.603519,26.5898438 116.248044,26.667968 116.880859,26.8242188 C117.513675,26.9804695 118.041014,27.2031236 118.462891,27.4921875 L118.462891,29.2617188 C117.978513,28.9414046 117.423831,28.6953134 116.798828,28.5234375 C116.173825,28.3515616 115.568362,28.265625 114.982422,28.265625 C114.326169,28.265625 113.810549,28.3867175 113.435547,28.6289062 C113.060545,28.871095 112.873047,29.2070291 112.873047,29.6367188 C112.873047,30.1445338 113.093748,30.5898438 113.535156,30.9726562 C113.932424,31.3171892 114.540094,31.6364053 115.358182,31.9303122 L115.638672,32.0273438 C116.927741,32.4570334 117.869138,32.9726532 118.462891,33.5742188 C119.056644,34.1757843 119.353516,34.9062457 119.353516,35.765625 C119.353516,36.4296908 119.17383,37.025388 118.814453,37.5527344 C118.455076,38.0800808 117.953128,38.4882798 117.308594,38.7773438 C116.664059,39.0664077 115.931645,39.2109375 115.111328,39.2109375 Z M121.837891,22.1015625 L123.830078,22.1015625 L123.830078,24.09375 L121.837891,24.09375 L121.837891,22.1015625 Z M121.814453,26.8125 L123.853516,26.8125 L123.853516,39 L121.814453,39 L121.814453,26.8125 Z M132.443359,39.1992188 C131.287104,39.1992188 130.251958,38.9316433 129.337891,38.3964844 C128.423824,37.8613254 127.71094,37.1152392 127.199219,36.1582031 C126.687497,35.2011671 126.431641,34.1132873 126.431641,32.8945312 C126.431641,31.6757752 126.687497,30.5898485 127.199219,29.6367188 C127.71094,28.683589 128.423824,27.9394558 129.337891,27.4042969 C130.251958,26.8691379 131.287104,26.6015625 132.443359,26.6015625 C133.599615,26.6015625 134.632808,26.8691379 135.542969,27.4042969 C136.45313,27.9394558 137.16406,28.683589 137.675781,29.6367188 C138.187503,30.5898485 138.443359,31.6757752 138.443359,32.8945312 C138.443359,34.1132873 138.187503,35.2011671 137.675781,36.1582031 C137.16406,37.1152392 136.45313,37.8613254 135.542969,38.3964844 C134.632808,38.9316433 133.599615,39.1992188 132.443359,39.1992188 Z M132.443359,37.5351562 C133.208988,37.5351562 133.894528,37.3378926 134.5,36.9433594 C135.105472,36.5488262 135.57617,36.0000035 135.912109,35.296875 C136.248049,34.5937465 136.416016,33.7929732 136.416016,32.8945312 C136.416016,32.0039018 136.248049,31.2070348 135.912109,30.5039062 C135.57617,29.8007777 135.105472,29.2539082 134.5,28.8632812 C133.894528,28.4726543 133.208988,28.2773438 132.443359,28.2773438 C131.677731,28.2773438 130.992191,28.4746074 130.386719,28.8691406 C129.781247,29.2636738 129.308595,29.8105434 128.96875,30.5097656 C128.628905,31.2089879 128.458984,32.0039018 128.458984,32.8945312 C128.458984,33.7929732 128.628905,34.5937465 128.96875,35.296875 C129.308595,36.0000035 129.781247,36.5488262 130.386719,36.9433594 C130.992191,37.3378926 131.677731,37.5351562 132.443359,37.5351562 Z M146.787109,26.4960938 C148.333992,26.4960938 149.511715,26.9003866 150.320312,27.7089844 C151.12891,28.5175822 151.533203,29.6953048 151.533203,31.2421875 L151.533203,39 L149.494141,39 L149.494141,31.6757812 C149.494141,30.5507756 149.212893,29.6933623 148.650391,29.1035156 C148.087888,28.5136689 147.267584,28.21875 146.189453,28.21875 C145.611325,28.21875 145.083987,28.3535143 144.607422,28.6230469 C144.130857,28.8925795 143.753908,29.2695288 143.476562,29.7539062 C143.199217,30.2382837 143.060547,30.7890594 143.060547,31.40625 L143.060547,39 L141.021484,39 L141.021484,26.8125 L143.060547,26.8125 L143.060547,28.5820312 L143.154297,28.5820312 C143.458986,27.9335905 143.945309,27.42383 144.613281,27.0527344 C145.281253,26.6816388 146.005855,26.4960938 146.787109,26.4960938 Z" id="Conclusion" fill="#000000" fill-rule="nonzero"></path>
                        </g>
                    </g>
                    <path d="M540,300.030657 C555,237.86829 605.828405,175.705923 680.71901,175.705923" id="Path-60" stroke="#EF3420" stroke-width="3" stroke-dasharray="8"></path>
                    <polygon id="Rectangle" fill="#EF3420" transform="translate(689.000000, 176.000000) rotate(-1.000000) translate(-689.000000, -176.000000) " points="682 168 696 176 682 184"></polygon>
                </g>
            </g>
        </g>
    </g>
</svg>